#!OML:ASF F:\VICON\USERDATA\INSTALL\Justin_Nancy\Justin_Nancy.ASF
:FULLY-SPECIFIED
:DEGREES
1
root 1.42367 16.8826 -33.8151 1.84022 5.4911 7.28038
lowerback 7.38189 -2.26538 -8.017
upperback 0.10963 -3.66366 0.854228
thorax -3.4715 -1.68011 5.75893
lowerneck -16.9924 -2.9837 -9.32416
upperneck 19.6457 -2.54738 4.07664
head 9.16538 -1.44831 2.61628
rclavicle -5.04913e-014 7.95139e-016
rhumerus -49.42 -22.3603 -68.7351
rradius 20.2961
rwrist 19.7422
rhand -15.1266 14.4312
rfingers 7.12502
rthumb 11.0426 -15.2584
lclavicle -5.04913e-014 7.95139e-016
lhumerus -21.1051 0.921678 81.7596
lradius 38.9255
lwrist 0.613818
lhand -16.9906 25.9793
lfingers 7.12502
lthumb 9.24444 55.7566
rfemur -32.3829 -0.432119 13.987
rtibia 18.645
rfoot -4.47377 -4.78123
rtoes -11.2678
lfemur 16.6583 -2.47052 -30.883
ltibia 17.9978
lfoot -11.7418 -9.57331
ltoes -9.40462
2
root 1.42041 16.9032 -33.5404 1.62147 5.62129 7.3572
lowerback 8.46556 -4.59938 -9.588
upperback -3.98323 -7.12291 2.81372
thorax -7.50124 -2.92158 9.39147
lowerneck -3.75954 0.712443 -13.5324
upperneck 16.7047 1.62747 3.90829
head 5.5468 0.228059 3.55829
rclavicle 2.78795e-014 -3.97569e-014
rhumerus -54.344 -10.9267 -68.2563
rradius 20.4552
rwrist 17.9688
rhand -14.4997 14.6896
rfingers 7.12502
rthumb 11.6473 -14.9667
lclavicle 2.78795e-014 -3.97569e-014
lhumerus -31.866 8.54599 80.5802
lradius 40.7699
lwrist -0.0250037
lhand -18.4856 25.4893
lfingers 7.12502
lthumb 7.80169 55.3253
rfemur -32.6309 0.113256 13.7019
rtibia 20.8521
rfoot -2.59948 -3.96217
rtoes -9.67513
lfemur 17.1832 -2.96676 -30.9231
ltibia 18.7279
lfoot -9.6715 -10.1965
ltoes -12.6382
3
root 1.41627 16.9258 -33.2617 1.3531 5.94719 7.44157
lowerback 9.97299 -5.81158 -12.8574
upperback -4.40003 -9.21233 5.23724
thorax -7.51204 -3.70237 14.4026
lowerneck -5.40526 2.07101 -14.9355
upperneck 17.3069 4.2225 1.85056
head 5.85013 1.22932 3.29297
rclavicle -3.15571e-014 -5.08889e-014
rhumerus -51.7601 -4.96962 -68.042
rradius 19.8673
rwrist 16.6666
rhand -13.6466 13.5494
rfingers 7.12502
rthumb 12.4699 -16.0586
lclavicle -3.15571e-014 -5.08889e-014
lhumerus -33.4956 15.2859 80.9073
lradius 41.3611
lwrist -0.635274
lhand -18.9125 26.0083
lfingers 7.12502
lthumb 7.38966 55.8593
rfemur -32.4597 1.26825 13.0665
rtibia 22.355
rfoot -1.01009 -4.62043
rtoes -9.79741
lfemur 16.8783 -3.47589 -30.9008
ltibia 20.9541
lfoot -7.7355 -10.9237
ltoes -16.5049
4
root 1.41016 16.9537 -32.9917 1.08455 6.22109 7.00505
lowerback 9.49498 -5.37864 -11.4615
upperback -3.87369 -8.39433 4.56266
thorax -7.19018 -3.44458 12.636
lowerneck -5.66753 1.4709 -14.0842
upperneck 17.1861 3.29294 2.23654
head 5.92703 0.867978 3.23373
rclavicle -8.03835e-014 3.97569e-014
rhumerus -51.9484 -8.36478 -67.2748
rradius 19.3577
rwrist 17.3946
rhand -13.6152 12.9707
rfingers 7.12502
rthumb 12.5001 -16.6355
lclavicle -8.03835e-014 3.97569e-014
lhumerus -32.1264 13.4652 81.0049
lradius 41.01
lwrist -0.722561
lhand -18.9128 28.1096
lfingers 7.12502
lthumb 7.38933 57.9606
rfemur -32.2503 2.11491 13.2426
rtibia 23.8614
rfoot -0.0413734 -4.70433
rtoes -7.82088
lfemur 16.3439 -4.02645 -30.3089
ltibia 23.2461
lfoot -5.06844 -11.7706
ltoes -18.7197
5
root 1.40734 16.9714 -32.7318 0.839948 5.82605 6.40768
lowerback 9.73514 -5.35713 -10.9567
upperback -3.96354 -8.3082 4.82213
thorax -7.47784 -3.38956 12.6822
lowerneck -5.61116 1.66834 -14.2193
upperneck 17.3509 3.57866 2.19749
head 5.9464 0.987066 3.2613
rclavicle -3.03147e-015 -2.54444e-014
rhumerus -52.0684 -8.29339 -66.8742
rradius 19.1637
rwrist 17.766
rhand -13.5098 13.0884
rfingers 7.12502
rthumb 12.6017 -16.5115
lclavicle -3.03147e-015 -2.54444e-014
lhumerus -32.5931 14.5337 80.7513
lradius 41.081
lwrist -1.05132
lhand -18.4665 29.3245
lfingers 7.12502
lthumb 7.82013 59.1599
rfemur -32.0466 2.35354 14.0897
rtibia 25.0855
rfoot 1.21085 -3.00158
rtoes -7.46533
lfemur 15.4091 -4.02218 -29.5787
ltibia 25.9501
lfoot -1.93144 -12.6222
ltoes -19.7684
6
root 1.40817 16.9809 -32.4718 0.596673 5.25377 5.79438
lowerback 10.3146 -5.69896 -11.1782
upperback -4.35018 -8.8134 5.73954
thorax -7.92439 -3.54243 14.0414
lowerneck -5.08428 2.24934 -15.1812
upperneck 17.3662 4.45796 1.71344
head 5.79738 1.3152 3.29467
rclavicle -7.17116e-014 -1.74931e-014
rhumerus -51.7921 -5.87572 -66.6731
rradius 18.9011
rwrist 18.1257
rhand -13.9105 13.6325
rfingers 7.12502
rthumb 12.2154 -15.9908
lclavicle -7.17116e-014 -1.74931e-014
lhumerus -34.2768 17.4497 80.3584
lradius 41.4765
lwrist -1.12125
lhand -17.2449 26.9145
lfingers 7.12502
lthumb 8.99904 56.7026
rfemur -31.7219 2.51766 15.0908
rtibia 26.1331
rfoot 2.39775 -1.52159
rtoes -6.60157
lfemur 14.2434 -3.77974 -28.8157
ltibia 28.8202
lfoot 1.9099 -13.346
ltoes -19.7071
7
root 1.40744 17.0076 -32.2032 0.301058 4.83195 5.0048
lowerback 10.124 -5.59528 -10.0313
upperback -4.37221 -8.48144 5.78289
thorax -8.08077 -3.42486 13.3714
lowerneck -3.94364 2.23069 -15.5119
upperneck 16.951 4.21495 1.869
head 5.48333 1.21276 3.35242
rclavicle -4.76586e-014 -1.43125e-014
rhumerus -52.1619 -6.84122 -65.6907
rradius 18.2583
rwrist 19.8989
rhand -14.429 14.7894
rfingers 7.12502
rthumb 11.7155 -14.863
lclavicle -4.76586e-014 -1.43125e-014
lhumerus -34.8495 17.6307 80.0172
lradius 41.3986
lwrist -0.0259919
lhand -17.2348 32.5776
lfingers 7.12502
lthumb 9.00875 62.3652
rfemur -31.1984 2.90102 16.2619
rtibia 27.093
rfoot 2.9514 -0.979707
rtoes -5.50485
lfemur 12.9803 -3.38757 -27.7021
ltibia 31.6465
lfoot 6.13358 -13.8661
ltoes -18.229
8
root 1.40095 17.0481 -31.9279 -0.0268646 4.83108 4.2838
lowerback 9.91188 -5.66598 -8.89393
upperback -4.43949 -8.39513 5.76142
thorax -8.20514 -3.43331 12.6551
lowerneck -2.87832 2.50038 -15.7189
upperneck 16.6182 4.33159 2.24106
head 5.17148 1.30307 3.47929
rclavicle 7.58364e-014 2.06736e-014
rhumerus -52.5653 -7.16894 -65.4322
rradius 18.0975
rwrist 20.274
rhand -14.3564 14.7549
rfingers 7.12502
rthumb 11.7854 -14.8935
lclavicle 7.58364e-014 2.06736e-014
lhumerus -35.443 17.9815 79.4432
lradius 41.2421
lwrist 0.993527
lhand -16.3981 33.5816
lfingers 7.12502
lthumb 9.81606 63.3329
rfemur -30.5563 3.2365 17.2856
rtibia 28.1098
rfoot 3.06134 -0.78139
rtoes -2.18694
lfemur 11.6678 -3.21961 -26.5323
ltibia 34.5027
lfoot 11.1945 -14.6729
ltoes -18.4158
9
root 1.39327 17.0904 -31.6545 -0.325952 5.2768 3.86437
lowerback 9.77678 -5.91336 -7.93963
upperback -4.57786 -8.597 5.57292
thorax -8.37959 -3.57252 11.9066
lowerneck -1.80582 2.90686 -15.7897
upperneck 16.2445 4.601 2.74863
head 4.82861 1.48489 3.62881
rclavicle -4.34344e-014 3.02153e-014
rhumerus -53.0854 -7.05629 -65.8191
rradius 18.4155
rwrist 19.9191
rhand -14.0918 13.8164
rfingers 7.12502
rthumb 12.0406 -15.8172
lclavicle -4.34344e-014 3.02153e-014
lhumerus -36.2369 18.1859 78.7468
lradius 41.2663
lwrist 1.51067
lhand -15.6343 32.7928
lfingers 7.12502
lthumb 10.5529 62.5078
rfemur -30.0026 3.31151 17.9116
rtibia 29.1339
rfoot 3.08673 -0.845361
rtoes 3.70403
lfemur 10.2856 -3.51434 -25.7073
ltibia 37.2943
lfoot 15.7997 -15.4623
ltoes -16.2227
10
root 1.38891 17.096 -31.3926 -0.544325 5.35537 3.73665
lowerback 9.64602 -6.00187 -7.32767
upperback -4.75473 -8.64043 5.34117
thorax -8.60616 -3.61099 11.3029
lowerneck -0.506227 3.05964 -16.0006
upperneck 15.5537 4.50245 3.14548
head 4.38892 1.48253 3.73943
rclavicle 5.51627e-014 -4.77083e-015
rhumerus -53.6848 -7.05597 -65.923
rradius 18.6153
rwrist 20.2004
rhand -14.0443 10.6719
rfingers 7.12502
rthumb 12.0864 -18.9591
lclavicle 5.51627e-014 -4.77083e-015
lhumerus -37.1472 18.2626 78.1858
lradius 41.3478
lwrist 1.31812
lhand -15.5389 31.8001
lfingers 7.12502
lthumb 10.6449 61.5105
rfemur -29.157 3.19145 18.4331
rtibia 30.1865
rfoot 2.31606 -1.03973
rtoes 5.37245
lfemur 8.72258 -3.65683 -25.3365
ltibia 40.1739
lfoot 19.1861 -16.8367
ltoes -13.7455
11
root 1.38422 17.1177 -31.1302 -0.724841 5.15657 3.74421
lowerback 9.54897 -5.94734 -6.90162
upperback -4.89329 -8.52395 5.06409
thorax -8.82936 -3.56465 10.7428
lowerneck 0.405775 3.25706 -16.1575
upperneck 15.4284 4.53893 3.63268
head 4.17552 1.52235 3.8952
rclavicle 1.83876e-014 -2.06736e-014
rhumerus -54.203 -6.91459 -66.2802
rradius 18.9181
rwrist 20.1227
rhand -14.5455 11.0615
rfingers 7.12502
rthumb 11.603 -18.5973
lclavicle 1.83876e-014 -2.06736e-014
lhumerus -37.8698 18.1388 77.7682
lradius 41.3073
lwrist 1.18584
lhand -15.9076 30.8724
lfingers 7.12502
lthumb 10.2893 60.6007
rfemur -28.3899 3.4928 18.6984
rtibia 31.0259
rfoot 1.22836 -1.78518
rtoes 4.97346
lfemur 7.03519 -3.55184 -25.1336
ltibia 43.1307
lfoot 21.6421 -18.8858
ltoes -10.6035
12
root 1.37634 17.1562 -30.8744 -0.9582 5.02994 3.41147
lowerback 9.5219 -5.86854 -6.22246
upperback -4.90711 -8.33344 4.87967
thorax -8.98732 -3.50559 10.1341
lowerneck 0.824783 3.24471 -16.2201
upperneck 15.7362 4.40946 3.97618
head 4.20042 1.45557 4.00973
rclavicle 1.98785e-014 -5.24792e-014
rhumerus -54.4666 -6.45371 -67.2902
rradius 19.5277
rwrist 18.9369
rhand -14.7614 12.0286
rfingers 7.12502
rthumb 11.3949 -17.6418
lclavicle 1.98785e-014 -5.24792e-014
lhumerus -38.1052 17.7403 77.6387
lradius 41.0137
lwrist 1.93321
lhand -16.4245 31.4252
lfingers 7.12502
lthumb 9.79064 61.1776
rfemur -27.4684 4.00662 19.2649
rtibia 31.5939
rfoot 0.0817679 -2.31683
rtoes 4.03561
lfemur 5.21237 -3.42811 -24.5376
ltibia 46.173
lfoot 26.5858 -19.3058
ltoes 1.55347
13
root 1.3673 17.1922 -30.6292 -1.12909 4.89735 2.75842
lowerback 9.59102 -5.71021 -5.40108
upperback -4.8693 -8.00558 4.86318
thorax -9.16077 -3.38434 9.6247
lowerneck 0.839153 2.83071 -16.2609
upperneck 16.4352 3.8556 4.03765
head 4.4678 1.14709 4.04295
rclavicle -1.90833e-014 4.13472e-014
rhumerus -54.3558 -6.41767 -68.0004
rradius 19.8528
rwrist 18.0927
rhand -14.9417 11.6216
rfingers 7.12502
rthumb 11.221 -18.0583
lclavicle -1.90833e-014 4.13472e-014
lhumerus -38.0392 17.6196 77.5651
lradius 40.6601
lwrist 1.29173
lhand -15.111 32.4637
lfingers 7.12502
lthumb 11.0577 62.1525
rfemur -26.493 4.53741 20.1893
rtibia 31.7848
rfoot -0.447608 -2.5429
rtoes 2.64228
lfemur 3.15543 -3.221 -23.6034
ltibia 49.2506
lfoot 27.1051 -18.7798
ltoes -6.18603
14
root 1.36189 17.2273 -30.3816 -1.27224 4.64442 1.88562
lowerback 9.52785 -5.38805 -4.57087
upperback -4.58871 -7.43549 5.018
thorax -9.00217 -3.16933 9.21955
lowerneck 0.436758 2.63956 -15.7965
upperneck 16.1329 3.65032 4.06156
head 4.46235 1.09361 3.97312
rclavicle -1.40441e-013 3.97569e-014
rhumerus -53.672 -6.6419 -68.5865
rradius 20.1188
rwrist 17.2734
rhand -15.3401 11.0528
rfingers 7.12502
rthumb 10.8367 -18.6476
lclavicle -1.40441e-013 3.97569e-014
lhumerus -37.4834 17.1446 78.1427
lradius 40.3406
lwrist 1.5265
lhand -15.5807 31.8951
lfingers 7.12502
lthumb 10.6046 61.6075
rfemur -25.3731 5.11379 21.3468
rtibia 31.6653
rfoot -0.910028 -2.95653
rtoes 1.60081
lfemur 1.09585 -2.8809 -22.4488
ltibia 52.3093
lfoot 27.9454 -17.8243
ltoes -4.08928
